<svg xmlns="http://www.w3.org/2000/svg" width="20" height="20" viewBox="0 0 20 20" fill="none">
  <mask id="path-1-inside-1_29_15" fill="white">
    <path fill-rule="evenodd" clip-rule="evenodd" d="M15.204 4.79605C15.6436 5.23569 15.6436 5.9485 15.204 6.38815L6.38815 15.204C5.9485 15.6436 5.2357 15.6436 4.79605 15.204C4.35641 14.7643 4.35641 14.0515 4.79605 13.6119L13.6119 4.79605C14.0515 4.3564 14.7643 4.3564 15.204 4.79605Z"/>
    <path fill-rule="evenodd" clip-rule="evenodd" d="M15.2039 15.204C14.7643 15.6436 14.0515 15.6436 13.6119 15.2039L4.79605 6.38815C4.3564 5.9485 4.3564 5.23569 4.79605 4.79605C5.23569 4.3564 5.9485 4.3564 6.38815 4.79605L15.2039 13.6119C15.6436 14.0515 15.6436 14.7643 15.2039 15.204Z"/>
  </mask>
  <path fill-rule="evenodd" clip-rule="evenodd" d="M15.204 4.79605C15.6436 5.23569 15.6436 5.9485 15.204 6.38815L6.38815 15.204C5.9485 15.6436 5.2357 15.6436 4.79605 15.204C4.35641 14.7643 4.35641 14.0515 4.79605 13.6119L13.6119 4.79605C14.0515 4.3564 14.7643 4.3564 15.204 4.79605Z" fill="#FF0000"/>
  <path fill-rule="evenodd" clip-rule="evenodd" d="M15.2039 15.204C14.7643 15.6436 14.0515 15.6436 13.6119 15.2039L4.79605 6.38815C4.3564 5.9485 4.3564 5.23569 4.79605 4.79605C5.23569 4.3564 5.9485 4.3564 6.38815 4.79605L15.2039 13.6119C15.6436 14.0515 15.6436 14.7643 15.2039 15.204Z" fill="#FF0000"/>
  <path d="M15.2039 13.6119L11.8935 16.9223L15.2039 13.6119ZM6.38815 4.79605L3.07765 8.10654L6.38815 4.79605ZM13.6119 4.79605L10.3014 1.48555L13.6119 4.79605ZM4.79605 13.6119L8.10655 16.9223L4.79605 13.6119ZM15.204 6.38815L11.8935 3.07765L15.204 6.38815ZM6.38815 15.204L3.07765 11.8935L6.38815 15.204ZM9.69864 18.5144L18.5144 9.69864L11.8935 3.07765L3.07765 11.8935L9.69864 18.5144ZM10.3014 1.48555L1.48556 10.3014L8.10655 16.9223L16.9223 8.10654L10.3014 1.48555ZM1.48555 9.69864L10.3014 18.5144L16.9223 11.8935L8.10654 3.07765L1.48555 9.69864ZM18.5144 10.3014L9.69864 1.48555L3.07765 8.10654L11.8935 16.9223L18.5144 10.3014ZM11.8935 16.9223C10.5048 15.5337 10.5048 13.2821 11.8935 11.8935L18.5144 18.5144C20.7824 16.2465 20.7824 12.5693 18.5144 10.3014L11.8935 16.9223ZM8.10654 8.10654C6.71785 9.49524 4.46634 9.49523 3.07765 8.10654L9.69864 1.48555C7.43066 -0.782426 3.75354 -0.78243 1.48555 1.48555L8.10654 8.10654ZM10.3014 18.5144C12.5693 20.7824 16.2465 20.7824 18.5144 18.5144L11.8935 11.8935C13.2821 10.5048 15.5337 10.5048 16.9223 11.8935L10.3014 18.5144ZM8.10654 3.07765C9.49523 4.46634 9.49524 6.71785 8.10654 8.10654L1.48555 1.48555C-0.78243 3.75354 -0.782427 7.43066 1.48555 9.69864L8.10654 3.07765ZM16.9223 8.10654C15.5337 9.49523 13.2821 9.49524 11.8935 8.10654L18.5144 1.48555C16.2465 -0.782429 12.5693 -0.782427 10.3014 1.48555L16.9223 8.10654ZM8.10655 11.8935C9.49524 13.2821 9.49524 15.5337 8.10655 16.9223L1.48556 10.3014C-0.782425 12.5693 -0.782426 16.2465 1.48556 18.5144L8.10655 11.8935ZM18.5144 9.69864C20.7824 7.43066 20.7824 3.75354 18.5144 1.48555L11.8935 8.10654C10.5048 6.71785 10.5048 4.46634 11.8935 3.07765L18.5144 9.69864ZM3.07765 11.8935C4.46634 10.5048 6.71786 10.5048 8.10655 11.8935L1.48556 18.5144C3.75354 20.7824 7.43066 20.7824 9.69864 18.5144L3.07765 11.8935Z" fill="#FF0000" mask="url(#path-1-inside-1_29_15)"/>
</svg>