<svg width="25" height="24" viewBox="0 0 25 24" fill="none" xmlns="http://www.w3.org/2000/svg">
<g clip-path="url(#clip0_10_84)">
<path d="M19.69 11.53C19.12 11.38 18.45 11.3 17.65 11.3C16.54 11.3 16.13 11.57 15.56 12C15.53 12.02 15.5 12.05 15.47 12.08L14.52 13.09C13.72 13.93 12.28 13.94 11.48 13.08L10.53 12.08C10.5 12.05 10.47 12.02 10.44 12C9.86999 11.57 9.45999 11.3 8.34999 11.3C7.54999 11.3 6.87999 11.38 6.30999 11.53C3.92999 12.17 3.92999 14.06 3.92999 15.72V16.65C3.92999 19.16 3.92999 22 9.27999 22H16.72C20.27 22 22.07 20.2 22.07 16.65V15.72C22.07 14.06 22.07 12.17 19.69 11.53ZM15.33 18.4H10.67C10.29 18.4 9.97999 18.09 9.97999 17.7C9.97999 17.31 10.29 17 10.67 17H15.33C15.71 17 16.02 17.31 16.02 17.7C16.02 18.09 15.71 18.4 15.33 18.4Z" fill="white"/>
<path d="M20.21 6.42V10.12C20.17 10.1 20.12 10.09 20.08 10.08C19.38 9.89 18.59 9.8 17.65 9.8C16.11 9.8 15.39 10.25 14.65 10.81C14.55 10.88 14.46 10.97 14.38 11.05L13.42 12.06C13.33 12.16 13.17 12.22 13 12.22C12.83 12.22 12.67 12.16 12.57 12.05L11.63 11.06C11.54 10.96 11.44 10.87 11.34 10.8C10.62 10.25 9.88999 9.8 8.34999 9.8C7.40999 9.8 6.61999 9.89 5.91999 10.08C5.87999 10.09 5.82999 10.1 5.78999 10.12V6.42C5.78999 4.35 5.78999 2 10.21 2H15.79C20.21 2 20.21 4.35 20.21 6.42Z" fill="white"/>
</g>
<defs>
<clipPath id="clip0_10_84">
<rect width="24" height="24" fill="white" transform="translate(0.666626)"/>
</clipPath>
</defs>
</svg>
