<svg xmlns="http://www.w3.org/2000/svg" width="20" height="20" viewBox="0 0 20 20" fill="none">
  <path fill-rule="evenodd" clip-rule="evenodd" d="M16.707 5.29303C16.8945 5.48056 16.9998 5.73487 16.9998 6.00003C16.9998 6.26519 16.8945 6.5195 16.707 6.70703L8.707 14.707C8.51947 14.8945 8.26516 14.9998 8 14.9998C7.73483 14.9998 7.48052 14.8945 7.293 14.707L3.293 10.707C3.11084 10.5184 3.01004 10.2658 3.01232 10.0036C3.0146 9.74143 3.11977 9.49062 3.30518 9.30521C3.49058 9.1198 3.7414 9.01464 4.00359 9.01236C4.26579 9.01008 4.51839 9.11087 4.70699 9.29303L8 12.586L15.293 5.29303C15.4805 5.10556 15.7348 5.00024 16 5.00024C16.2652 5.00024 16.5195 5.10556 16.707 5.29303Z" fill="#0694A2"/>
</svg>